<svg class="svg-icon" style="width: 3em; height: 3em;vertical-align: middle;fill: white;overflow: hidden;" viewBox="0 0 1024 1024" version="1.1" xmlns="http://www.w3.org/2000/svg"><path d="M1024.162909 1023.790545H0L75.217455 414.254545h873.867636zM52.433455 976.919273h919.412363l-63.627636-515.746909H116.061091zM935.726545 637.277091H88.482909v-46.871273H935.726545v46.894546z m26.391273 185.762909H60.276364V776.145455h901.934545v46.894545z m-426.821818 177.314909H488.890182V437.736727h46.289454v562.618182z m-254.603636 1.954909l-46.126546-3.909818 46.266182-562.618182 46.126545 3.886546z m462.941091 0l-46.289455-562.641454 46.126545-3.886546L789.736727 998.4z m-69.515637-634.903273h-46.266182a115.712 115.712 0 1 0-231.400727 0h-46.289454a161.978182 161.978182 0 1 1 323.956363 0z m148.084364 18.757819L696.017455 290.257455 713.937455 162.909091l-125.672728 18.199273L512.162909 78.266182l-76.171636 102.865454L310.341818 162.909091l17.943273 127.301818-126.208 95.906909-27.764364-37.469091 104.285091-79.266909-22.807273-161.698909 159.604364 23.109818L512.162909 0.139636l96.744727 130.676364 159.604364-23.109818-22.807273 161.698909 104.285091 79.266909z"  /></svg>


