<svg class="svg-icon" style="width: 1em; height: 1em;vertical-align: middle;fill: white;overflow: hidden;" viewBox="0 0 1024 1024" version="1.1" xmlns="http://www.w3.org/2000/svg"><path d="M686.606225 510.524392 517.747399 638.968763c-2.403746-0.198521-4.801353-0.401136-7.206122-0.401136-35.411511 0-64.020082 28.613688-64.020082 64.028269 0 35.410488 28.608571 64.021106 64.020082 64.021106 35.414581 0 64.028269-28.609595 64.028269-64.021106 0-2.403746-0.200568-4.801353-0.401136-7.206122l128.444371-168.859849L686.606225 510.524392 686.606225 510.524392zM686.606225 510.524392"  /><path d="M510.541277 190.410678c-247.484557 0-448.155926 200.672392-448.155926 448.157973 0 68.828598 15.60542 133.852544 43.214221 192.07048l72.226998 0c-30.810726-53.217039-48.414663-113.238041-51.017954-176.063925l63.61997 0 0-32.006971-63.61997 0c2.4017-57.623395 17.407462-113.044636 43.61331-162.862251l55.020104 31.813566 16.007579-27.812439-55.020104-31.608905c14.805194-23.210631 32.414247-45.216831 52.420907-65.22349 20.406772-20.207227 42.61354-38.015825 66.220191-53.021587l31.611975 54.618968 27.813462-16.001439-31.614022-54.618968c49.618071-26.010397 104.437607-40.615023 161.66089-43.018769l0 63.620993 32.006971 0 0-63.620993c57.222259 2.402723 112.041796 17.207917 161.659867 43.018769l-31.41243 54.618968 27.812439 16.001439 31.608905-54.618968c23.611767 15.005762 45.816488 32.81436 66.224284 53.021587 20.007683 20.006659 37.415145 41.812291 52.42193 65.22349l-54.819536 31.608905 16.002462 27.812439 55.020104-31.813566c26.209942 49.817616 41.215704 105.239879 43.618427 162.862251l-64.026222 0 0 32.006971 63.627133 0c-2.604314 62.825884-20.207227 122.846886-51.018977 176.063925l72.222905 0c27.611871-58.21896 43.218314-123.242905 43.218314-192.07048C958.70539 391.08307 758.034021 190.410678 510.541277 190.410678L510.541277 190.410678zM510.541277 190.410678"  /></svg>
