<svg class="svg-icon" style="width: 4em;height: 4em;vertical-align: middle;fill: white;overflow: hidden;" viewBox="0 0 1024 1024" version="1.1" xmlns="http://www.w3.org/2000/svg"><path d="M808.41 499.4H667.24l-26.61-132.02h79.12c5.82 0.04 11.42-2.25 15.54-6.36 4.13-4.11 6.44-9.69 6.42-15.52 0.02-5.82-2.3-11.41-6.42-15.52-4.12-4.11-9.72-6.4-15.54-6.36h-87.99l-19.51-96.72c-4.26-20.52-22.32-35.25-43.28-35.31h-96.86c-20.95 0-39.39 14.84-43.28 35.31l-19.51 96.72H321.7a21.846 21.846 0 0 0-15.58 6.34 21.797 21.797 0 0 0-6.44 15.54c0 12.36 9.94 21.88 22.02 21.88h79.12l-26.64 132.06H233.01a21.776 21.776 0 0 0-15.55 6.34 21.81 21.81 0 0 0-6.44 15.51c0 12.02 9.91 21.91 21.96 21.91h132.34l-65.27 326.16v6.7c0 1.41 0.37 2.48 0.7 3.88 0.37 1.41 1.07 2.48 1.78 3.89 0.62 1.31 1.46 2.5 2.48 3.52 0.37 0.7 0.73 1.41 1.41 1.77 0.37 0.34 1.1 0.71 1.43 1.04 1.07 0.71 2.14 1.41 3.55 2.14 1.41 0.7 2.85 1.41 4.25 1.75 0.73 0 1.07 0.7 1.78 0.7h2.14c0.71 0 1.41 0.37 2.14 0.37 0.7 0 1.41-0.37 2.48-0.37 1.41 0 2.82-0.34 4.25-0.7 1.41-0.34 2.81-1.04 3.91-1.75 1.31-0.62 2.51-1.46 3.54-2.48 0.71-0.71 1.41-0.71 2.11-1.41l183.07-192.03 183.05 192.03c0.37 0.34 0.7 0.34 1.07 0.7 1.41 1.41 3.18 2.45 4.96 3.18 0.7 0.34 1.41 1.04 2.14 1.04 2.58 1.13 5.35 1.73 8.17 1.78 1.41 0 2.82 0 3.89-0.37 0.7 0 1.07-0.7 1.77-0.7 1.41-0.34 2.82-1.04 4.25-1.75l3.21-2.14c0.7-0.34 1.07-0.7 1.78-1.04 0.7-0.7 0.7-1.41 1.41-1.77a12.75 12.75 0 0 0 2.48-3.52c0.73-1.41 1.41-2.48 1.78-3.89 0.37-1.41 0.73-2.48 0.73-3.88v-6.7l-65.63-325.83h132.33a21.815 21.815 0 0 0 21.96-21.88c0-11.99-9.58-22.24-21.96-22.24h-0.05zM472.84 235.01H569l17.74 88.24H455.07l17.74-88.24h0.03z m-26.61 132.36h149.01l26.61 132.06H419.6l26.61-132.06h0.02z m159.99 176.15l-85.51 89.31-85.48-89.31h170.99zM358.25 803.35l46.12-228.38 85.88 90.02-132 138.36z m278.86-228.38l46.12 228.38-131.97-138.36 85.85-90.02z m0 0"  /></svg>

  
