<svg class="svg-icon" style="width: 1em; height: 1em;vertical-align: middle;fill: white;overflow: hidden;" viewBox="0 0 1024 1024" version="1.1" xmlns="http://www.w3.org/2000/svg"><path d="M848 539.648a32.128 32.128 0 0 1 24.874667 31.189333v412.885334a32.085333 32.085333 0 0 1-32 32h-253.824a32.085333 32.085333 0 0 1-32-32v-217.557334H470.613333v217.557334a32.085333 32.085333 0 0 1-32 32H183.125333a32.085333 32.085333 0 0 1-32-32v-412.885334a31.957333 31.957333 0 0 1 63.488-5.717333c0.426667 2.517333 0.384 3.157333 0.512 5.717333v380.885334H406.613333v-217.557334a32.085333 32.085333 0 0 1 32-32h148.437334a32.170667 32.170667 0 0 1 32 32v217.557334h189.824v-380.885334a32.256 32.256 0 0 1 33.450666-31.957333c2.858667 0.256 2.858667 0.256 5.674667 0.768z"  /><path d="M774.698667 267.989333l228.224 226.730667c0.768 0.853333 1.578667 1.664 2.304 2.56a31.786667 31.786667 0 0 1 7.04 22.613333 32.341333 32.341333 0 0 1-32.682667 29.482667 32.170667 32.170667 0 0 1-16.384-4.949333c-2.602667-1.664-3.114667-2.261333-5.418667-4.309334L507.690667 92.842667 57.386667 540.117333l-2.56 2.304c-0.938667 0.64-1.834667 1.365333-2.816 2.005334a32.170667 32.170667 0 0 1-23.296 4.394666 32.341333 32.341333 0 0 1-25.856-32.384 32.170667 32.170667 0 0 1 5.077333-16.341333c1.664-2.602667 2.304-3.114667 4.352-5.418667L485.12 25.045333c0.853333-0.725333 1.621333-1.536 2.517333-2.218666a31.701333 31.701333 0 0 1 11.818667-6.016c2.858667-0.768 3.626667-0.725333 6.570667-1.024h3.328c1.109333 0.128 2.218667 0.170667 3.328 0.341333a31.744 31.744 0 0 1 12.373333 4.736c2.474667 1.621333 2.986667 2.218667 5.205333 4.181333l179.541334 178.432c-0.042667-28.928 0.213333-57.856 0.853333-86.741333a32 32 0 0 1 62.037333-9.557333c1.152 3.072 1.92 9.557333 1.92 9.557333l0.085334 151.253333z"  /></svg>