<?xml version="1.0" encoding="UTF-8" standalone="no"?>
<svg
   class="svg-icon"
   style="width: 1em; height: 1em;vertical-align: middle;fill: currentColor;overflow: hidden;"
   viewBox="0 0 1024 1024"
   version="1.1"
   id="svg4"
   sodipodi:docname="owbCar.svg"
   inkscape:version="1.1.2 (0a00cf5339, 2022-02-04)"
   xmlns:inkscape="http://www.inkscape.org/namespaces/inkscape"
   xmlns:sodipodi="http://sodipodi.sourceforge.net/DTD/sodipodi-0.dtd"
   xmlns="http://www.w3.org/2000/svg"
   xmlns:svg="http://www.w3.org/2000/svg">
  <defs
     id="defs8" />
  <sodipodi:namedview
     id="namedview6"
     pagecolor="#000000"
     bordercolor="#666666"
     borderopacity="1.0"
     inkscape:pageshadow="2"
     inkscape:pageopacity="0"
     inkscape:pagecheckerboard="true"
     showgrid="false"
     inkscape:zoom="0.4921875"
     inkscape:cx="159.49206"
     inkscape:cy="539.42857"
     inkscape:window-width="1920"
     inkscape:window-height="1016"
     inkscape:window-x="0"
     inkscape:window-y="0"
     inkscape:window-maximized="1"
     inkscape:current-layer="svg4" />
  <path
     d="M213.333333 469.333333l64-192h469.333334L810.666667 469.333333m-64 213.333334a64 64 0 0 1-64-64 64 64 0 0 1 64-64 64 64 0 0 1 64 64 64 64 0 0 1-64 64m-469.333334 0A64 64 0 0 1 213.333333 618.666667 64 64 0 0 1 277.333333 554.666667 64 64 0 0 1 341.333333 618.666667 64 64 0 0 1 277.333333 682.666667M807.253333 256c-8.533333-24.746667-32.426667-42.666667-60.586666-42.666667h-469.333334c-28.16 0-52.053333 17.92-60.586666 42.666667L128 512v341.333333a42.666667 42.666667 0 0 0 42.666667 42.666667h42.666666a42.666667 42.666667 0 0 0 42.666667-42.666667v-42.666666h512v42.666666a42.666667 42.666667 0 0 0 42.666667 42.666667h42.666666a42.666667 42.666667 0 0 0 42.666667-42.666667v-341.333333l-88.746667-256z"
     fill=""
     id="path2"
     style="fill:#ffffff;fill-opacity:1" />
</svg>
